<svg width="45" height="56" viewBox="0 0 45 56" fill="none" xmlns="http://www.w3.org/2000/svg">
<path d="M44 9.47266V1.97266L15 10.4727L14.5 15.4727L16 18.4727L44 9.47266Z" fill="#A4E8FF"/>
<circle cx="8" cy="47.4727" r="7" fill="#A4E8FF" stroke="black" stroke-width="2"/>
<path d="M37 29.4727C40.866 29.4727 44 32.6067 44 36.4727C44 40.3386 40.866 43.4727 37 43.4727C33.134 43.4727 30 40.3386 30 36.4727C30 32.6067 33.134 29.4727 37 29.4727Z" fill="#A4E8FF" stroke="black" stroke-width="2"/>
<path d="M45 36.4727H43V10.9688L16 19.7002V47.9727H14V9.73828L14.7002 9.51855L43.7002 0.408203L45 0V36.4727ZM16 11.2061V17.5977L43 8.86719V2.72461L16 11.2061Z" fill="black"/>
</svg>
