<svg width="69" height="69" viewBox="0 0 69 69" fill="none" xmlns="http://www.w3.org/2000/svg">
  <path d="M32.835 1.02051C36.8004 0.927041 39.41 1.10883 43.2744 2.14355C51.7659 4.51065 59.002 10.1236 63.4346 17.7852V17.7861C67.9395 25.5926 69.1716 34.8811 66.8584 43.6025C65.8748 47.2932 64.2803 50.7909 62.1436 53.9502C61.4703 54.9423 61.0013 55.6766 60.2666 56.0967C59.3583 56.6049 58.2512 56.5666 57.3838 56.0098L57.2139 55.8916C56.8672 55.6312 56.5699 55.2982 56.2627 54.8906C56.1085 54.686 55.9595 54.4733 55.7979 54.2432C55.6397 54.0181 55.4702 53.7758 55.2891 53.5381C54.7022 52.7677 54.1122 51.8866 53.4541 50.957C52.8945 50.1665 52.2951 49.3562 51.666 48.6621L51.3945 48.3721C49.9536 46.871 48.1369 45.7873 46.1348 45.2344L46.127 45.2314C43.1219 44.4273 39.9229 44.8455 37.2227 46.3945L37.2217 46.3955C34.4202 48.0063 32.6055 50.6614 31.7881 53.6895L31.7832 53.709L31.7783 53.7275C31.4877 54.9991 31.4053 56.3715 31.3691 57.6816C31.3319 59.0303 31.3427 60.2697 31.2578 61.4443C31.2199 61.9685 31.2176 62.5354 31.2119 63.0684C31.2061 63.6158 31.1967 64.1434 31.1533 64.6514C31.0649 65.6872 30.8429 66.4732 30.376 67.0078L30.3711 67.0137C29.8563 67.6118 29.1191 67.9671 28.3359 67.9971H28.3262C27.9268 68.0159 27.3812 67.9411 26.7637 67.8027C26.16 67.6675 25.5528 67.4871 25.0459 67.3311L25.0391 67.3291L24.1562 67.0518C19.7685 65.6062 15.7189 63.2692 12.2598 60.1826C5.8096 54.4208 1.82223 46.3885 1.1084 37.7617L1.0498 36.9248C0.585452 27.5878 3.37304 19.0368 9.63379 12.0889L9.63477 12.0869C15.5952 5.43799 23.9462 1.45476 32.835 1.02051Z" fill="#FFEED7" stroke="black" stroke-width="2"/>
  <circle cx="22.6848" cy="16.0686" r="5.61644" fill="#D0FFF3" stroke="black" stroke-width="2"/>
  <circle cx="45.3699" cy="15.1233" r="5.61644" fill="#FF9696" stroke="black" stroke-width="2"/>
  <circle cx="56.7121" cy="31.1919" r="5.61644" fill="#FFCFFD" stroke="black" stroke-width="2"/>
  <circle cx="11.3425" cy="34.0273" r="5.61644" fill="#A4E8FF" stroke="black" stroke-width="2"/>
  <circle cx="20.7947" cy="51.041" r="5.61644" fill="#FFCA4E" stroke="black" stroke-width="2"/>
</svg>
